<mxfile host="app.diagrams.net" agent="Mozilla/5.0 (Macintosh; Intel Mac OS X 10_15_7) AppleWebKit/605.1.15 (KHTML, like Gecko) Version/18.4 Safari/605.1.15" version="27.1.4">
  <diagram name="Page-1" id="tDzj1H6aXOwy8955VubF">
    <mxGraphModel dx="672" dy="986" grid="1" gridSize="10" guides="1" tooltips="1" connect="1" arrows="1" fold="1" page="1" pageScale="1" pageWidth="850" pageHeight="1100" math="0" shadow="0">
      <root>
        <mxCell id="0" />
        <mxCell id="1" parent="0" />
        <mxCell id="alPfz6NbqrDl9lQjSqnc-51" style="edgeStyle=orthogonalEdgeStyle;rounded=0;orthogonalLoop=1;jettySize=auto;html=1;entryX=0;entryY=0.5;entryDx=0;entryDy=0;" parent="1" source="2" target="3" edge="1">
          <mxGeometry relative="1" as="geometry" />
        </mxCell>
        <mxCell id="alPfz6NbqrDl9lQjSqnc-52" style="edgeStyle=orthogonalEdgeStyle;rounded=0;orthogonalLoop=1;jettySize=auto;html=1;entryX=0;entryY=0.5;entryDx=0;entryDy=0;" parent="1" source="2" target="5" edge="1">
          <mxGeometry relative="1" as="geometry" />
        </mxCell>
        <mxCell id="alPfz6NbqrDl9lQjSqnc-53" style="edgeStyle=orthogonalEdgeStyle;rounded=0;orthogonalLoop=1;jettySize=auto;html=1;entryX=0;entryY=0.5;entryDx=0;entryDy=0;" parent="1" source="2" target="9" edge="1">
          <mxGeometry relative="1" as="geometry" />
        </mxCell>
        <mxCell id="alPfz6NbqrDl9lQjSqnc-54" style="edgeStyle=orthogonalEdgeStyle;rounded=0;orthogonalLoop=1;jettySize=auto;html=1;entryX=0;entryY=0.5;entryDx=0;entryDy=0;" parent="1" source="2" target="14" edge="1">
          <mxGeometry relative="1" as="geometry" />
        </mxCell>
        <mxCell id="2" value="Функции администратора" style="whiteSpace=wrap;strokeWidth=1;" parent="1" vertex="1">
          <mxGeometry x="1030" y="400" width="100" height="34" as="geometry" />
        </mxCell>
        <mxCell id="alPfz6NbqrDl9lQjSqnc-39" style="edgeStyle=orthogonalEdgeStyle;rounded=0;orthogonalLoop=1;jettySize=auto;html=1;entryX=0;entryY=0.5;entryDx=0;entryDy=0;" parent="1" source="3" target="4" edge="1">
          <mxGeometry relative="1" as="geometry" />
        </mxCell>
        <mxCell id="3" value="Авторизация" style="whiteSpace=wrap;strokeWidth=1;" parent="1" vertex="1">
          <mxGeometry x="1130" y="474" width="90" height="34" as="geometry" />
        </mxCell>
        <mxCell id="4" value="Ввод логина и пароля" style="whiteSpace=wrap;strokeWidth=1;" parent="1" vertex="1">
          <mxGeometry x="1270" y="478" width="190" height="26" as="geometry" />
        </mxCell>
        <mxCell id="alPfz6NbqrDl9lQjSqnc-38" style="edgeStyle=orthogonalEdgeStyle;rounded=0;orthogonalLoop=1;jettySize=auto;html=1;entryX=0;entryY=0.5;entryDx=0;entryDy=0;" parent="1" source="5" target="8" edge="1">
          <mxGeometry relative="1" as="geometry" />
        </mxCell>
        <mxCell id="alPfz6NbqrDl9lQjSqnc-40" style="edgeStyle=orthogonalEdgeStyle;rounded=0;orthogonalLoop=1;jettySize=auto;html=1;entryX=0;entryY=0.5;entryDx=0;entryDy=0;" parent="1" source="5" target="7" edge="1">
          <mxGeometry relative="1" as="geometry" />
        </mxCell>
        <mxCell id="alPfz6NbqrDl9lQjSqnc-41" style="edgeStyle=orthogonalEdgeStyle;rounded=0;orthogonalLoop=1;jettySize=auto;html=1;entryX=0;entryY=0.5;entryDx=0;entryDy=0;" parent="1" source="5" target="6" edge="1">
          <mxGeometry relative="1" as="geometry" />
        </mxCell>
        <mxCell id="5" value="Управление заказами" style="whiteSpace=wrap;strokeWidth=1;" parent="1" vertex="1">
          <mxGeometry x="1130" y="556" width="90" height="34" as="geometry" />
        </mxCell>
        <mxCell id="6" value="Просмотр списка заказов" style="whiteSpace=wrap;strokeWidth=1;" parent="1" vertex="1">
          <mxGeometry x="1270" y="600" width="190" height="26" as="geometry" />
        </mxCell>
        <mxCell id="7" value="Просмотр деталей заказа" style="whiteSpace=wrap;strokeWidth=1;" parent="1" vertex="1">
          <mxGeometry x="1270" y="524" width="190" height="26" as="geometry" />
        </mxCell>
        <mxCell id="8" value="Изменение статуса заказа" style="whiteSpace=wrap;strokeWidth=1;" parent="1" vertex="1">
          <mxGeometry x="1270" y="560" width="190" height="26" as="geometry" />
        </mxCell>
        <mxCell id="alPfz6NbqrDl9lQjSqnc-42" style="edgeStyle=orthogonalEdgeStyle;rounded=0;orthogonalLoop=1;jettySize=auto;html=1;entryX=0;entryY=0.5;entryDx=0;entryDy=0;" parent="1" source="9" target="12" edge="1">
          <mxGeometry relative="1" as="geometry" />
        </mxCell>
        <mxCell id="alPfz6NbqrDl9lQjSqnc-43" style="edgeStyle=orthogonalEdgeStyle;rounded=0;orthogonalLoop=1;jettySize=auto;html=1;entryX=0;entryY=0.5;entryDx=0;entryDy=0;" parent="1" source="9" target="13" edge="1">
          <mxGeometry relative="1" as="geometry" />
        </mxCell>
        <mxCell id="alPfz6NbqrDl9lQjSqnc-44" style="edgeStyle=orthogonalEdgeStyle;rounded=0;orthogonalLoop=1;jettySize=auto;html=1;entryX=0;entryY=0.5;entryDx=0;entryDy=0;" parent="1" source="9" target="11" edge="1">
          <mxGeometry relative="1" as="geometry" />
        </mxCell>
        <mxCell id="alPfz6NbqrDl9lQjSqnc-45" style="edgeStyle=orthogonalEdgeStyle;rounded=0;orthogonalLoop=1;jettySize=auto;html=1;entryX=0;entryY=0.5;entryDx=0;entryDy=0;" parent="1" source="9" target="10" edge="1">
          <mxGeometry relative="1" as="geometry" />
        </mxCell>
        <mxCell id="9" value="Управление товарами" style="whiteSpace=wrap;strokeWidth=1;" parent="1" vertex="1">
          <mxGeometry x="1130" y="700" width="90" height="34" as="geometry" />
        </mxCell>
        <mxCell id="10" value="Создание карточки товара" style="whiteSpace=wrap;strokeWidth=1;" parent="1" vertex="1">
          <mxGeometry x="1270" y="766" width="191" height="26" as="geometry" />
        </mxCell>
        <mxCell id="11" value="Редактирование информации" style="whiteSpace=wrap;strokeWidth=1;" parent="1" vertex="1">
          <mxGeometry x="1270" y="726" width="190" height="26" as="geometry" />
        </mxCell>
        <mxCell id="12" value="Загрузка изображений" style="whiteSpace=wrap;strokeWidth=1;" parent="1" vertex="1">
          <mxGeometry x="1270" y="686" width="190" height="26" as="geometry" />
        </mxCell>
        <mxCell id="13" value="Снятие с публикации" style="whiteSpace=wrap;strokeWidth=1;" parent="1" vertex="1">
          <mxGeometry x="1270" y="650" width="190" height="26" as="geometry" />
        </mxCell>
        <mxCell id="alPfz6NbqrDl9lQjSqnc-46" style="edgeStyle=orthogonalEdgeStyle;rounded=0;orthogonalLoop=1;jettySize=auto;html=1;entryX=0;entryY=0.5;entryDx=0;entryDy=0;" parent="1" source="14" target="15" edge="1">
          <mxGeometry relative="1" as="geometry" />
        </mxCell>
        <mxCell id="alPfz6NbqrDl9lQjSqnc-47" style="edgeStyle=orthogonalEdgeStyle;rounded=0;orthogonalLoop=1;jettySize=auto;html=1;entryX=0;entryY=0.5;entryDx=0;entryDy=0;" parent="1" source="14" target="16" edge="1">
          <mxGeometry relative="1" as="geometry" />
        </mxCell>
        <mxCell id="alPfz6NbqrDl9lQjSqnc-48" style="edgeStyle=orthogonalEdgeStyle;rounded=0;orthogonalLoop=1;jettySize=auto;html=1;entryX=0;entryY=0.5;entryDx=0;entryDy=0;" parent="1" source="14" target="17" edge="1">
          <mxGeometry relative="1" as="geometry" />
        </mxCell>
        <mxCell id="alPfz6NbqrDl9lQjSqnc-49" style="edgeStyle=orthogonalEdgeStyle;rounded=0;orthogonalLoop=1;jettySize=auto;html=1;entryX=0;entryY=0.5;entryDx=0;entryDy=0;" parent="1" source="14" target="18" edge="1">
          <mxGeometry relative="1" as="geometry" />
        </mxCell>
        <mxCell id="14" value="Публикация на внешние ресурсы" style="whiteSpace=wrap;strokeWidth=1;" parent="1" vertex="1">
          <mxGeometry x="1130" y="860" width="90" height="54" as="geometry" />
        </mxCell>
        <mxCell id="15" value="В telegram" style="whiteSpace=wrap;strokeWidth=1;" parent="1" vertex="1">
          <mxGeometry x="1270" y="814" width="190" height="26" as="geometry" />
        </mxCell>
        <mxCell id="16" value="В  farpost" style="whiteSpace=wrap;strokeWidth=1;" parent="1" vertex="1">
          <mxGeometry x="1271" y="854" width="190" height="26" as="geometry" />
        </mxCell>
        <mxCell id="17" value="В avito" style="whiteSpace=wrap;strokeWidth=1;" parent="1" vertex="1">
          <mxGeometry x="1270" y="894" width="190" height="26" as="geometry" />
        </mxCell>
        <mxCell id="18" value="В юла" style="whiteSpace=wrap;strokeWidth=1;" parent="1" vertex="1">
          <mxGeometry x="1270" y="930" width="190" height="26" as="geometry" />
        </mxCell>
      </root>
    </mxGraphModel>
  </diagram>
</mxfile>
